<?xml version="1.0" encoding="UTF-8"?>
<svg width="173px" height="242px" viewBox="0 0 173 242" version="1.1" xmlns="http://www.w3.org/2000/svg" xmlns:xlink="http://www.w3.org/1999/xlink">
    <!-- Generator: Sketch 43.1 (39012) - http://www.bohemiancoding.com/sketch -->
    <title>Body</title>
    <desc>Created with Sketch.</desc>
    <defs></defs>
    <g id="Page-1" stroke="none" stroke-width="1" fill="none" fill-rule="evenodd">
        <g id="Body" transform="translate(0.000000, -1.000000)">
            <path d="M16,41.5 C16.4575612,39.9131389 17.2570766,39.2017466 16.6190383,38.216771 C13.6852118,33.6876578 1.5,33.9457676 1.5,24.5 C1.5,3 22,27 25.5,27 C26.1505211,27 25.7656888,26.525487 30.5,20.5 C35.2343112,14.474513 36,13.5 38,11.5 C40,9.5 44.5,6 46,7.5 C47.5,9 45.5,16 48.5,14.5 C49.7995999,13.8502001 54.5,12 57.5,9.69708108 C59.0227886,8.52812822 71.4913557,0.897275188 74.5,1 C78.18347,1.12576553 74.3663581,9.81292185 77,9.69708108 C79.5137266,9.58651479 90.6768829,4.82552955 94.5,5.5 C98.2757871,6.16612054 94.7129782,12.2634833 97,12.8373098 C100.676942,13.7598751 108.260585,9 110.5,9 C112.739415,9 112.739415,11.5 112.739415,11.5 C112.739415,11.5 118,9.69708108 119,9.69708108 C120,9.69708108 121.160779,9.31824407 122,12.8373098 C124.065863,21.5 112,24.5 112,36 C112,39.6759949 112.030172,44.0138537 112.083104,48.8852048 C112.128754,53.0863459 167.5,62.5 167.5,62.5 C167.5,62.5 146.707635,92.7047628 112.739415,90.5269089 C113.793665,149.622114 115.263289,226.83601 112,233 C107.5,241.5 29.5,248 11.5,228.5 C-5.6205044,209.952787 -1.25656254,113.661987 14.4852755,51.323252 C14.691614,50.5061381 13.5,51 13,50 C12.5,49 12.7761079,47.8278986 13,47 C13.4015041,45.515335 15.5852409,42.9384198 16,41.5 Z" id="Rectangle" fill="#ED1A7F"></path>
            <path d="M55,52.5 C55.8371303,51.3838263 47.5,49 83.5,61 C90.7295107,63.4098369 126.5,69 147.5,65.5 C168.5,62 167,62.5 167.5,62.5 C168,62.5 163,73 150.5,81.5 C132.910296,93.4609988 115.5,92 115.5,94 C115.5,96 115.5,172.606131 115.5,180.5 C115.5,226.5 114,232 110,237 C106,242 60.7008057,247.401611 53,232 C49.5,225 41.8947805,188.81598 40.5,150 C38.7350972,100.883719 54.1621457,53.617139 55,52.5 Z" id="Rectangle-2" fill="#FBEEEE"></path>
            <path d="M12.5,202.5 C12.5,202.5 12.0405694,204.662278 12.5,206.5 C12.9594306,208.337722 13.5,208.5 13.5,208.5" id="Line" stroke="#000000" stroke-width="1.5" stroke-linecap="square"></path>
            <path d="M71,64 C72.5,65 74.4219591,65.9784605 74,69 C73.8862476,69.8145515 73.5,70.5 72.5120581,71.4570418 C70.415326,73.4881939 63,72 63,72" id="Line" stroke="#000000" stroke-width="0.5" stroke-linecap="square"></path>
            <path d="M108,70.0246812 C108,70.0246812 112.863278,69.7512367 113.5,71.0246812 C114.136722,72.2981256 109.5,75.0246812 109.5,75.0246812" id="Line" stroke="#000000" stroke-width="0.5" stroke-linecap="square"></path>
            <path d="M164.825595,55.0385006 C164.825595,53.2154184 166.304962,51.7375183 168.12158,51.7375183 L168.12158,51.7375183 C169.941902,51.7375183 171.417565,53.2061672 171.417565,55.0352827 L171.417565,58.7433355 L171.417565,60.7516219 C171.417565,62.5762812 169.938198,64.0554598 168.12158,64.0554598 L168.12158,64.0554598 C166.301258,64.0554598 164.825595,62.5818634 164.825595,60.7544775 L164.825595,55.0385006 Z" id="Rectangle-3" fill="#000000" transform="translate(168.121580, 57.896489) rotate(19.000000) translate(-168.121580, -57.896489) "></path>
            <path d="M73,71 C73,71 74,73.5 84.5,75 C95,76.5 110,73.1928204 110,73.1928204" id="Line-Copy" stroke="#000000" stroke-width="0.5" stroke-linecap="square"></path>
            <path d="M28.6213937,67 C28.6213937,67 27.6703588,65.4689172 28.1213937,62.25 C28.5724287,59.0310828 28.9762673,58 28.9762673,58" id="Line" stroke="#000000" stroke-width="1.5" stroke-linecap="square"></path>
            <path d="M99.5,19 C99.5,19 101.241669,17.4066648 103,16 C104.758331,14.5933352 107.5,13.5 107.5,13.5" id="Line-Copy-2" stroke="#000000" stroke-width="1.5" stroke-linecap="square"></path>
            <path d="M83,14.5 C83,14.5 84.9301571,13.0957992 87,12 C89.0698429,10.9042008 91.5,10 91.5,10" id="Line-Copy-4" stroke="#000000" stroke-width="1.5" stroke-linecap="square"></path>
            <path d="M64,10.5 C64,10.5 65.9301571,9.09579919 68,8 C70.0698429,6.90420081 72.5,6 72.5,6" id="Line-Copy-5" stroke="#000000" stroke-width="1.5" stroke-linecap="square"></path>
            <path d="M111,20.5 C111,20.5 111.641197,19.1131223 113.5,17.75 C115.358803,16.3868777 118.5,15 118.5,15" id="Line-Copy-3" stroke="#000000" stroke-width="1.5" stroke-linecap="square"></path>
            <path d="M5,21.5 C5,21.5 7.34497627,20.5863981 9.39665085,23.2242654 C11.4483254,25.8621327 13.5,28.5 13.5,28.5 C13.5,28.5 13.2872295,25.1489344 15.5,26 C17.7127705,26.8510656 20,31 20,31" id="Line" stroke="#000000" stroke-width="1.5" stroke-linecap="square"></path>
            <path d="M12.5,84 C12.5,84 12.0115495,81.547322 12.5,76.5 C12.9884505,71.452678 14,70 14,70" id="Line" stroke="#000000" stroke-width="1.5" stroke-linecap="square"></path>
            <path d="M8.5,121 C8.5,121 8.11937297,124.205553 8,126 C7.88062703,127.794447 8.5,130.5 8.5,130.5" id="Line" stroke="#000000" stroke-width="1.5" stroke-linecap="square"></path>
            <path d="M14.5,154.5 C14.5,154.5 13.9071625,160.350137 14.5,164.5 C15.0928375,168.649863 15.3682583,169 15.3682583,169" id="Line" stroke="#000000" stroke-width="1.5" stroke-linecap="square"></path>
            <path d="M32.5,189.5 C32.5,189.5 31.9013691,193.006845 32.5,196 C33.0986309,198.993155 34.5,199.5 34.5,199.5" id="Line" stroke="#000000" stroke-width="1.5" stroke-linecap="square"></path>
        </g>
    </g>
</svg>