
<svg width="68px" height="39px" viewBox="0 0 68 39" version="1.1" xmlns="http://www.w3.org/2000/svg" xmlns:xlink="http://www.w3.org/1999/xlink">
    <!-- Generator: Sketch 43.1 (39012) - http://www.bohemiancoding.com/sketch -->
    <desc>Created with Sketch.</desc>
    <defs>
        <circle id="path-1" cx="49.5" cy="20.5" r="15.5"></circle>
        <circle id="path-3" cx="16.5" cy="16.5" r="15.5"></circle>
    </defs>
    <g id="Page-1" stroke="none" stroke-width="1" fill="none" fill-rule="evenodd">
        <g id="Eyes" transform="translate(1.000000, 1.000000)">
            <g id="eyes_structure">
                <circle id="Oval" stroke="#000000" stroke-width="2" fill="#FFFFFF" cx="49.5" cy="20.5" r="16.5"></circle>
                <circle id="Oval-Copy" stroke="#000000" stroke-width="2" fill="#FFFFFF" cx="16.5" cy="16.5" r="16.5"></circle>
                <ellipse id="Oval-2" fill="#000000" cx="29.5" cy="18" rx="1.5" ry="2"></ellipse>
                <ellipse id="Oval-2-Copy" fill="#000000" cx="62.5" cy="21" rx="1.5" ry="2"></ellipse>
            </g>
            <mask id="mask-2" fill="white">
                <use xlink:href="#path-1"></use>
            </mask>
            <g id="Oval-4"></g>
            <path d="M34,4 L70,4 L70,22.5 C70,22.5 58.0511305,15.5 50,15.5 C41.9488695,15.5 33,19 33,19 L34,4 Z" id="Rectangle-7" fill="#ED1A7F" mask="url(#mask-2)"></path>
            <path d="M34,17.5 C34,17.5 43.3542526,12.435908 52,13.5 C60.6457474,14.564092 66,18.5 66,18.5 L66,38 L34,38 L34,17.5 Z" id="Rectangle-8" fill="#ED1A7F" mask="url(#mask-2)"></path>
            <mask id="mask-4" fill="white">
                <use xlink:href="#path-3"></use>
            </mask>
            <g id="Oval-3"></g>
            <path d="M-1,-3 L33,1.5 L33,17 C33,17 24.5077154,13.5 16,13.5 C7.49228461,13.5 0,19 0,19 L-1,-3 Z" id="Rectangle-6" fill="#ED1A7F" mask="url(#mask-4)"></path>
            <path d="M-1,19 C-1,19 6.27359554,10 15.75,10 C25.2264045,10 33,15.5 33,15.5 L32,36 L-1,37 L-1,19 Z" id="Rectangle-6-Copy" fill="#ED1A7F" mask="url(#mask-4)"></path>
        </g>
    </g>
</svg>